# xmcd
#
# Track frame offsets: 
#        150
#        15806
#        31668
#        45999
#        61403
#        73552
#        90889
#        103907
#        121861
#        128897
#        142103
#        154322
#
# Disc length: 2221 seconds
#
# Revision: 0
# Processed by: cddbd v1.5.2PL0 Copyright (c) Steve Scherf et al.
# Submitted via: ExactAudioCopy v1.3
#
DISCID=9108ab0c
DTITLE=Claude Hay - Roller Coaster
DYEAR=2016
DGENRE=
TTITLE0=Burn
TTITLE1=What It Takes
TTITLE2=Forget About Me
TTITLE3=Roller Coaster
TTITLE4=Hold You Up
TTITLE5=Love No More
TTITLE6=241
TTITLE7=Talk To The Hand
TTITLE8=Road Rage
TTITLE9=Winner
TTITLE10=Running
TTITLE11=Never Say Goodbye
EXTD=
EXTT0=
EXTT1=
EXTT2=
EXTT3=
EXTT4=
EXTT5=
EXTT6=
EXTT7=
EXTT8=
EXTT9=
EXTT10=
EXTT11=
PLAYORDER=
